<svg width="416" height="312" viewBox="0 0 416 312" fill="none" xmlns="http://www.w3.org/2000/svg">
<path d="M350.651 134.428C333.773 136.988 302.569 150.21 257.039 173.811C219.878 193.005 170.236 200.256 154.209 195.28C148.819 193.574 145.557 188.598 144.564 180.351C143.996 171.536 140.45 165.565 133.926 162.153C126.267 158.314 113.785 158.03 102.722 163.006C62.0153 181.062 30.2442 215.896 18.7555 235.516H403.414C395.329 227.412 391.358 223.147 391.358 222.578C385.259 213.052 385.259 202.104 391.358 189.593C397.882 176.939 401.286 169.262 401.854 166.418C404.69 155.897 402.705 147.935 396.038 142.532C386.11 133.717 371.075 131.016 350.651 134.428Z" fill="url(#paint0_linear)"/>
<path d="M317.932 212.057C314.953 213.052 311.833 214.474 308.57 216.464C305.734 218.028 301.479 221.156 295.947 225.421C290.274 229.544 286.444 232.672 284.317 234.663H405.302C403.459 233.241 402.04 231.819 401.331 230.539C399.487 227.127 399.629 223.004 401.473 218.312C404.026 212.483 405.444 208.644 405.87 206.796C407.004 201.962 406.579 198.265 404.451 195.848C402.891 194.142 400.905 193.005 398.211 192.578C395.799 192.152 393.388 192.436 390.835 193.147C388.849 193.858 386.864 195.138 384.594 196.701C383.176 197.697 381.19 199.118 378.495 201.109C373.389 205.232 364.028 211.061 350.412 218.739C347.15 220.587 344.455 221.867 342.327 222.435C339.349 223.288 336.654 223.146 334.243 222.151C332.541 221.298 331.548 219.592 331.122 217.033C330.839 214.474 329.704 212.767 327.718 211.63C325.449 210.635 322.187 210.777 317.932 212.057Z" fill="url(#paint1_linear)"/>
<path opacity="0.5" d="M71.2348 230.113C70.6674 229.118 70.6674 227.696 71.3766 226.132C71.5185 225.848 72.2276 224.426 73.7878 221.725C75.7735 218.171 75.348 215.611 72.5113 214.19C71.2348 213.621 69.2491 213.905 66.696 214.901C65.4195 215.469 63.4338 216.18 60.7389 217.318C59.4624 217.744 58.0441 217.886 56.6257 217.602C55.3492 217.175 54.0727 216.607 53.2216 215.611C52.3706 214.758 51.9451 213.763 51.9451 212.626C51.9451 211.488 52.087 210.351 52.3706 209.213C52.938 205.943 52.6543 203.669 51.3778 202.247C49.6758 200.683 47.5482 199.83 45.2789 199.83C44.1442 199.83 42.8676 199.972 41.8748 200.398C38.4707 201.394 35.2085 202.958 32.3718 204.948C29.2514 206.939 26.4147 209.213 23.7198 211.63C16.4862 218.028 10.9546 224.142 6.98322 230.113" stroke="#7055FF" stroke-linecap="round" stroke-linejoin="round"/>
<path d="M106.475 117.178C106.262 117.01 106.048 116.857 105.819 116.689C105.758 116.612 105.682 116.536 105.621 116.49C103.606 114.883 102.125 113.766 101.194 113.17C103.53 112.879 105.636 111.686 107.513 109.62C111.314 105.413 111.176 97.7785 109.742 95.1929C107.33 90.8172 102.492 85.5389 97.6535 77.6596C94.5399 72.5955 87.9311 66.185 77.4455 68.4799C74.1335 69.199 70.9741 70.7748 67.7689 72.4119C64.5484 74.0336 62.3658 76.7569 61.2669 80.5818C60.1375 84.3914 61.2974 89.2873 65.0673 95.0858C69.7836 102.322 73.813 122.12 73.523 129.556C73.2482 136.41 68.8067 136.303 65.0673 153.5C62.1042 167.127 87.5064 219 95.4872 230.5C98.9214 228.373 112.303 206.588 114.442 203L113.588 171.14V107.172C112.855 112.145 110.49 115.48 106.475 117.178Z" fill="url(#paint2_linear)"/>
<path d="M97.6073 176.678C97.47 177.703 97.3784 178.667 97.3173 179.616C96.9358 185.965 97.6684 192.712 99.4847 199.826C100.294 202.978 103.499 214.573 104.796 218C108.23 215.873 112.575 206.723 116.437 204L113.588 171.14C111.725 171.843 106.399 173.695 97.6073 176.678ZM98.2026 113.522C95.9895 113.675 94.1122 113.583 92.5553 113.277C88.3581 112.42 85.5192 111.349 84.0387 110.049C86.9844 113.874 90.4033 116.23 94.3106 117.117C98.0652 117.959 102.43 117.897 106.49 117.163C109.131 117.974 109.512 121.738 108.597 128.286C107.91 133.074 107.055 137.787 106.017 142.392C105.62 144.09 105.208 145.758 104.796 147.441C103.926 150.822 102.537 155.794 100.614 162.358C100.492 162.71 100.4 163.046 100.294 163.398C100.126 164.041 99.9731 164.668 99.8204 165.265C98.7215 169.472 97.9889 173.266 97.6073 176.663C106.399 173.679 111.725 171.828 113.572 171.124V107.172C112.855 112.145 110.489 115.48 106.475 117.163C106.261 116.995 102.125 113.751 101.194 113.154C100.324 113.307 99.332 113.43 98.2026 113.522Z" fill="#0C053E"/>
<path opacity="0.5" d="M309.373 219.8C304.884 215.4 300.195 213.2 295.307 213.3H139.482C134.593 213.3 129.905 215.4 125.415 219.8L96.7842 247.6C94.6892 249.7 92.9933 251.6 91.7962 253.2C91.4969 253.5 91.2974 253.9 91.0978 254.2C90.3995 255.2 89.9007 256.2 89.6014 257.1C88.8034 259.7 90.4993 261 94.5894 261.1H340.399C344.489 261.1 346.185 259.7 345.287 257C345.087 256.2 344.588 255.2 343.89 254.2C343.691 253.9 343.491 253.6 343.192 253.3C341.895 251.6 340.199 249.7 338.004 247.5L309.373 219.8Z" fill="#0C053E"/>
<path d="M352.071 241.5L321.245 202.7H113.743L82.9175 241.5H82.6182C83.0173 245.6 90.599 247.8 105.264 248.1H329.724C344.389 247.8 351.971 245.5 352.47 241.5H352.071Z" fill="url(#paint3_linear)"/>
<path d="M82.6182 241.5C83.0173 245.6 90.599 247.8 105.264 248.1H329.724C344.389 247.8 351.971 245.5 352.47 241.5H82.6182Z" fill="url(#paint4_linear)"/>
<path d="M237.745 244.8C240.339 244.6 241.736 243.5 241.835 241.5H193.252C193.352 243.5 194.649 244.7 197.342 244.8H237.745Z" fill="#3A1F9E"/>
<path d="M125.515 202.7L105.064 230.9H330.123L309.573 202.7H125.515Z" fill="url(#paint5_linear)"/>
<path d="M319.249 65.1C317.354 62.4 314.162 61 309.672 61H137.686H125.016C117.335 61 113.544 64.8 113.644 72.4H113.544V202.8L252.709 202.9L321.245 202.8V72.4C321.145 69.4 320.546 67 319.249 65.1Z" fill="url(#paint6_linear)"/>
<mask id="mask0" mask-type="alpha" maskUnits="userSpaceOnUse" x="113" y="61" width="209" height="142">
<path d="M319.249 65.1C317.354 62.4 314.162 61 309.672 61H137.686H125.016C117.335 61 113.544 64.8 113.644 72.4H113.544V202.8L252.709 202.9L321.245 202.8V72.4C321.145 69.4 320.546 67 319.249 65.1Z" fill="url(#paint7_linear)"/>
</mask>
<g mask="url(#mask0)">
<path opacity="0.5" d="M160.331 190.824C154.845 195.324 126.912 196.824 104.466 192.824L102.471 164.824C109.287 166.324 124.318 169.624 129.905 170.824C136.888 172.324 164.821 112.824 166.816 111.324C168.811 109.824 178.787 108.324 182.777 109.324C186.221 110.187 236.85 131.534 250.653 137.364C252.609 138.191 253.543 140.388 252.824 142.386L244.498 165.528C243.746 167.619 241.443 168.7 239.358 167.93C229.399 164.253 202.345 154.266 190.259 149.824C188.264 150.824 165.818 186.324 160.331 190.824Z" fill="url(#paint8_linear)"/>
</g>
<path d="M135.79 90.8C133.995 84.1 133.296 78 133.596 72.4C134.294 67.2 135.591 63.4 137.686 61H125.016C117.335 61 113.544 64.8 113.644 72.4H113.544V202.8L252.709 202.9C252.709 202.9 238.743 164.8 196.943 148.9C166.118 137.2 145.966 116.4 135.79 90.8Z" fill="url(#paint9_linear)"/>
<path d="M108.999 78.6977C108.488 78.037 108.125 76.9633 107.944 75.4601C107.746 73.9403 108.142 72.8005 109.131 72.0572C107.977 71.6112 107.4 70.7522 107.4 69.4472C107.4 68.1422 107.483 67.1511 107.664 66.4243C107.845 65.6974 108.125 65.1854 108.537 64.9045C107.565 63.9465 107.17 63.0049 107.351 62.0798C107.532 61.1382 107.977 60.4775 108.686 60.1141C110.152 59.4864 111.586 59.123 112.987 59.0239C114.173 58.9413 115.294 59.0734 116.348 59.4203C117.403 59.7672 118.309 60.3288 119.051 61.0722C119.43 61.4191 119.76 61.8486 120.089 62.3276C122.578 63.7648 122.611 65.6809 121.885 67.3989C123.023 67.9275 123.764 69.9097 122.627 71.6442C118.837 74.8819 114.734 77.4754 110.301 79.4081C109.922 79.5898 109.493 79.342 108.999 78.6977ZM124.061 74.6341C123.649 74.5846 123.072 74.7993 122.33 75.2784C118.491 77.3597 114.503 78.8464 110.35 79.7384C109.625 80.234 109.164 80.8617 108.949 81.6216C108.719 82.3649 108.653 83.3726 108.768 84.628C108.867 85.8669 109.543 86.5111 110.762 86.5442C112.295 86.2799 113.959 85.7017 115.722 84.7932C117.634 83.769 119.842 82.2823 122.347 80.3331C123.369 79.4576 124.077 78.7969 124.44 78.3343C124.885 77.6901 125.148 77.0954 125.231 76.5503C125.28 76.2365 125.28 75.9391 125.231 75.6748C125.033 74.981 124.638 74.6341 124.061 74.6341Z" fill="url(#paint10_linear)"/>
<path d="M107.351 62.0965C107.532 61.1549 107.977 60.4942 108.669 60.1308C107.878 60.4611 106.395 61.188 106.148 61.5679C105.901 61.9478 105.538 62.5921 105.374 63.1702C105.209 63.831 105.209 64.4422 105.374 65.0369C105.456 65.3507 105.654 65.8463 105.934 66.5235C106.115 67.0852 106.049 67.5642 105.753 67.9607C105.621 68.1259 105.406 68.3406 105.093 68.6049C104.813 68.8196 104.615 69.0014 104.517 69.1666C104.088 69.8108 104.138 70.4881 104.681 71.2479C104.945 71.6774 105.11 71.9417 105.192 72.0408C105.374 72.3877 105.439 72.7346 105.406 73.0815C105.357 73.6101 104.929 74.2378 104.138 74.9646C103.264 75.8071 102.753 76.4679 102.572 76.8973C102.424 77.3599 102.44 77.8059 102.605 78.2519C102.753 78.6814 103.017 79.0283 103.396 79.2926C103.66 79.5073 104.039 79.7055 104.517 79.8707C104.78 79.9698 105.176 80.135 105.703 80.3167C106.016 80.4985 106.197 80.6471 106.23 80.7958C106.263 80.9445 106.214 81.1096 106.066 81.3079C105.983 81.44 105.851 81.6052 105.687 81.8365C105.275 82.3651 105.11 82.9763 105.176 83.637C105.225 84.2152 105.456 84.7438 105.868 85.2063C106.395 85.7845 107.714 86.6269 108.752 86.693C109.576 86.7426 110.054 86.66 110.746 86.5609C109.526 86.5278 108.867 85.8836 108.752 84.6447C108.653 83.3892 108.702 82.3816 108.933 81.6383C109.147 80.8784 109.609 80.2507 110.334 79.7551C110.334 79.7551 109.955 79.7881 109.444 79.8542C109.938 79.6725 109.806 79.6725 110.284 79.4413C109.905 79.6064 109.477 79.3586 108.982 78.7309C108.472 78.0702 108.109 76.9965 107.928 75.4933C107.73 73.9735 108.356 72.4868 109.114 72.0904C107.961 71.6444 107.384 70.7854 107.384 69.4804C107.384 68.1754 107.466 67.1843 107.648 66.4575C107.829 65.7306 108.109 65.2186 108.521 64.9377C108.175 65.0864 108.175 65.0864 108.521 64.9377C107.565 63.9466 107.17 63.005 107.351 62.0965Z" fill="#261C6A"/>
<path d="M109.642 64.4917C113.152 63.2363 116.629 62.5094 120.073 62.3277M110.202 71.5287C114.026 69.6786 117.915 68.3075 121.87 67.4155" stroke="#EDB596" stroke-miterlimit="10" stroke-linecap="round"/>
<path d="M309.273 80.9C309.273 76.9 307.278 75 303.288 75H131.301C127.311 75 125.316 77 125.316 80.9V184.1C125.316 188.1 127.311 190 131.301 190H303.288C307.278 190 309.273 188 309.273 184.1V80.9Z" fill="url(#paint11_linear)"/>
<path opacity="0.5" d="M139.395 82.2354L162.632 97.7072C162.77 97.8088 163.13 97.7533 163.231 97.6146L188.168 60.0717C188.269 59.9331 188.214 59.5727 188.076 59.4711L164.839 43.9993C162.94 42.817 160.44 43.3259 159.241 45.1097L138.291 76.6266C137.109 78.5305 137.616 81.0346 139.395 82.2354Z" fill="url(#paint12_linear)"/>
<path d="M135.226 72.4076L158.462 87.8794C158.601 87.981 158.96 87.9254 159.062 87.7868L183.999 50.2439C184.1 50.1053 184.045 49.7449 183.907 49.6433L160.67 34.1715C158.771 32.9892 156.271 33.4981 155.071 35.2819L134.122 66.7987C132.94 68.7027 133.446 71.2068 135.226 72.4076Z" fill="url(#paint13_linear)"/>
<path d="M165.659 64.9142L154.439 57.3082L151.316 55.333L150.211 54.5206M152.396 67.2117C152.25 64.653 152.916 60.9853 155.01 57.8341C155.499 57.021 156.126 56.3094 156.772 55.7178C157.519 54.9876 158.266 54.2575 159.372 53.4717C160.478 52.6859 161.92 51.9363 162.98 51.6494M153.225 67.8216C155.668 66.952 158.784 64.8719 160.86 61.6007C160.961 61.4621 161.062 61.3235 161.146 61.0648C161.616 60.1315 162.188 59.0597 162.64 58.0063C163.545 55.8997 163.694 53.6641 163.557 51.9644M155.264 50.666C155.632 51.4695 156.12 52.2544 156.728 53.0208C157.354 53.9073 158.772 55.1629 160.117 55.9382C162.982 57.8304 165.322 58.6975 167.294 58.7612M148.576 60.6739C150.17 60.673 153.524 61.7521 155.578 63.1552C157.89 64.6412 160.128 67.2451 160.828 68.6119M148.649 61.1538C149.44 66.3266 154.265 69.8726 159.426 69.0741C164.587 68.2755 168.131 63.4347 167.34 58.2619C166.549 53.0891 161.724 49.543 156.563 50.3416C151.402 51.1402 147.859 55.9809 148.649 61.1538Z" stroke="url(#paint14_linear)" stroke-miterlimit="10"/>
<path d="M172.684 52.2739L159.831 43.6838" stroke="url(#paint15_linear)" stroke-width="0.9218" stroke-miterlimit="10" stroke-linecap="round"/>
<path d="M152.12 73.4048L148.285 70.8001" stroke="url(#paint16_linear)" stroke-width="1.3827" stroke-miterlimit="10" stroke-linecap="round"/>
<mask id="mask1" mask-type="alpha" maskUnits="userSpaceOnUse" x="113" y="61" width="209" height="142">
<path d="M319.249 65.1C317.354 62.4 314.162 61 309.672 61H137.686H125.016C117.335 61 113.544 64.8 113.644 72.4H113.544V202.8L252.709 202.9L321.245 202.8V72.4C321.145 69.4 320.546 67 319.249 65.1Z" fill="url(#paint17_linear)"/>
</mask>
<g mask="url(#mask1)">
<path opacity="0.5" fill-rule="evenodd" clip-rule="evenodd" d="M278.977 91.1313L307.01 79.1312C309.105 78.2313 310.103 75.7312 309.205 73.6312L297.234 45.5313C296.336 43.4313 293.842 42.4312 291.747 43.3312L263.714 55.3313C261.619 56.2313 260.622 58.7313 261.519 60.8313L273.491 88.9313C274.388 91.1313 276.882 92.1313 278.977 91.1313Z" fill="url(#paint18_linear)"/>
</g>
<path fill-rule="evenodd" clip-rule="evenodd" d="M269.999 87.1313L298.032 75.1312C300.127 74.2313 301.124 71.7312 300.226 69.6312L288.255 41.5313C287.357 39.4313 284.863 38.4312 282.768 39.3312L254.736 51.3313C252.641 52.2313 251.643 54.7313 252.541 56.8313L264.512 84.9313C265.41 87.1313 267.904 88.1313 269.999 87.1313Z" fill="url(#paint19_linear)"/>
<path fill-rule="evenodd" clip-rule="evenodd" d="M269.899 87.3313C267.804 88.2313 265.31 87.2313 264.412 85.1313L264.113 84.4313C267.904 69.9313 301.024 79.1313 288.056 49.8313C286.26 45.8313 282.868 42.8313 280.075 40.6313L282.669 39.5313C283.965 38.9313 285.462 39.1313 286.559 39.8313C287.058 40.1313 287.457 40.5313 287.756 40.9313C287.956 41.1313 288.056 41.4313 288.155 41.6313L300.127 69.7313C300.226 69.8313 300.226 70.0313 300.226 70.1313C300.326 70.4313 300.326 70.6313 300.426 70.9313C300.426 71.0313 300.426 71.2313 300.426 71.3313C300.426 71.6313 300.426 71.8313 300.326 72.1313C300.226 72.4313 300.226 72.6313 300.127 72.9313C299.728 73.9313 298.93 74.7313 297.932 75.2313L269.899 87.3313Z" fill="url(#paint20_linear)"/>
<path fill-rule="evenodd" clip-rule="evenodd" d="M269.899 87.3313L297.932 75.3313C300.027 74.4313 301.024 71.9313 300.127 69.8313L288.155 41.7313C287.258 39.6313 284.763 38.6313 282.669 39.5313L254.636 51.5313C252.541 52.4313 251.543 54.9313 252.441 57.0313L264.412 85.1313C265.31 87.2313 267.804 88.2313 269.899 87.3313Z" stroke="#7F67FF" stroke-linecap="round" stroke-linejoin="round"/>
<path d="M269.301 67.4312L271.994 66.2312C271.695 65.2312 271.695 64.1312 271.994 63.1312L269.301 62.0312C269.001 61.9312 268.802 61.5312 268.902 61.2312C269.001 60.9312 269.4 60.7312 269.7 60.8312L272.393 61.9312C272.892 61.0312 273.59 60.2312 274.588 59.7312L273.391 57.0312C273.291 56.7312 273.391 56.3312 273.69 56.2312C273.989 56.1312 274.388 56.2312 274.488 56.5312L275.685 59.2312C276.683 58.9312 277.78 58.9312 278.778 59.2312L279.875 56.5312C279.975 56.2312 280.374 56.0312 280.673 56.1312C280.973 56.2312 281.172 56.6312 281.072 56.9312L279.975 59.6312C280.873 60.1312 281.671 60.8312 282.17 61.8312L284.863 60.6312C285.163 60.5312 285.562 60.6312 285.661 60.9312C285.761 61.2312 285.661 61.6312 285.362 61.7312L282.669 62.9312C282.968 63.9312 282.968 65.0312 282.669 66.0312L285.362 67.1312C285.661 67.2312 285.861 67.6312 285.761 67.9312C285.661 68.1312 285.562 68.2312 285.462 68.2312C285.362 68.3312 285.163 68.3312 284.963 68.2312L282.269 67.1312C281.771 68.0312 281.072 68.8312 280.075 69.3312L281.272 72.0312C281.372 72.3312 281.272 72.7312 280.973 72.8312C280.673 72.9312 280.274 72.8312 280.175 72.5312L278.977 69.8312C277.98 70.1312 276.882 70.1312 275.885 69.8312L274.787 72.5312C274.688 72.7312 274.588 72.8312 274.488 72.9312C274.289 73.0312 274.189 73.0312 273.989 72.9312C273.69 72.8312 273.491 72.4312 273.59 72.1312L274.688 69.4312C273.79 68.9312 272.992 68.2312 272.493 67.2312L269.799 68.4312C269.5 68.5312 269.101 68.4312 269.001 68.1312C268.902 67.9312 269.001 67.5312 269.301 67.4312ZM273.191 65.8312L274.787 65.1312C274.787 64.8312 274.787 64.5312 274.787 64.2312L273.191 63.5312C272.992 64.3312 272.992 65.0312 273.191 65.8312ZM278.08 66.0312C278.878 65.7312 279.277 64.8312 278.878 64.0312C278.479 63.2312 277.681 62.8312 276.882 63.2312C276.084 63.5312 275.685 64.4312 276.084 65.2312C276.483 66.0312 277.281 66.4312 278.08 66.0312ZM273.59 62.4312L275.187 63.1312C275.386 62.9312 275.586 62.7312 275.785 62.5312L275.087 60.9312C274.488 61.2312 273.989 61.7312 273.59 62.4312ZM276.284 60.3312L276.982 61.9312C277.281 61.9312 277.581 61.9312 277.88 61.9312L278.578 60.3312C277.78 60.1312 277.082 60.1312 276.284 60.3312ZM279.676 60.7312L278.977 62.3312C279.177 62.5312 279.376 62.7312 279.576 62.9312L281.172 62.2312C280.873 61.6312 280.374 61.1312 279.676 60.7312ZM281.771 63.5312L280.175 64.2312C280.175 64.5312 280.175 64.8312 280.175 65.1312L281.771 65.8312C281.97 65.0312 281.97 64.2312 281.771 63.5312ZM281.372 66.8312L279.775 66.1312C279.576 66.3312 279.376 66.5312 279.177 66.7312L279.875 68.3312C280.474 68.0312 280.973 67.5312 281.372 66.8312ZM278.578 68.9312L277.88 67.3312C277.581 67.3312 277.281 67.3312 276.982 67.3312L276.284 68.9312C277.082 69.1312 277.88 69.1312 278.578 68.9312ZM275.187 68.5312L275.885 66.9312C275.685 66.7312 275.486 66.5312 275.286 66.3312L273.69 67.0312C274.089 67.6312 274.588 68.1312 275.187 68.5312Z" fill="url(#paint21_linear)"/>
<path opacity="0.4" d="M271.894 54.6313C270.517 54.6313 269.4 53.512 269.4 52.1313C269.4 50.7505 270.517 49.6313 271.894 49.6313C273.272 49.6313 274.388 50.7505 274.388 52.1313C274.388 53.512 273.272 54.6313 271.894 54.6313Z" fill="#0C053E"/>
<path d="M271.296 54.3312C269.918 54.3312 268.802 53.2119 268.802 51.8312C268.802 50.4505 269.918 49.3312 271.296 49.3312C272.673 49.3312 273.79 50.4505 273.79 51.8312C273.79 53.2119 272.673 54.3312 271.296 54.3312Z" fill="url(#paint22_linear)"/>
<path d="M271.296 53.5313C270.359 53.5313 269.6 52.7701 269.6 51.8313C269.6 50.8924 270.359 50.1313 271.296 50.1313C272.233 50.1313 272.992 50.8924 272.992 51.8313C272.992 52.7701 272.233 53.5313 271.296 53.5313Z" fill="#1F1B64"/>
<path d="M271.296 53.2312C270.525 53.2312 269.899 52.6044 269.899 51.8312C269.899 51.058 270.525 50.4312 271.296 50.4312C272.067 50.4312 272.693 51.058 272.693 51.8312C272.693 52.6044 272.067 53.2312 271.296 53.2312Z" fill="url(#paint23_linear)"/>
<path d="M271.296 53.0313C270.635 53.0313 270.099 52.494 270.099 51.8313C270.099 51.1685 270.635 50.6313 271.296 50.6313C271.957 50.6313 272.493 51.1685 272.493 51.8313C272.493 52.494 271.957 53.0313 271.296 53.0313Z" fill="url(#paint24_linear)"/>
<path d="M268.303 67.2313L274.688 64.4312L268.203 61.8313C267.904 61.7313 267.705 61.3313 267.804 61.0313C267.904 60.7313 268.303 60.5313 268.602 60.6313L275.087 63.2313L272.293 56.8312C272.194 56.5312 272.294 56.1313 272.593 56.0313C272.892 55.9313 273.291 56.0312 273.391 56.3312L276.084 62.7313L278.678 56.2313C278.778 55.9313 279.177 55.7312 279.476 55.8312C279.776 55.9312 279.975 56.3313 279.875 56.6313L277.281 63.1312L283.666 60.4312C283.965 60.3312 284.364 60.4313 284.464 60.7313C284.564 61.0313 284.464 61.4313 284.165 61.5313L277.78 64.3313L284.265 66.9313C284.564 67.0312 284.764 67.4313 284.664 67.7313C284.564 67.9313 284.464 68.0313 284.364 68.0313C284.265 68.1313 284.065 68.1313 283.866 68.0313L277.381 65.4312L280.175 71.8313C280.274 72.1313 280.175 72.5312 279.875 72.6312C279.576 72.7312 279.177 72.6313 279.077 72.3313L276.384 65.9313L273.79 72.4313C273.69 72.6313 273.59 72.7313 273.491 72.7313C273.291 72.8313 273.191 72.8313 272.992 72.7313C272.693 72.6313 272.493 72.2313 272.593 71.9313L275.187 65.4312L268.802 68.1312C268.503 68.2312 268.104 68.1313 268.004 67.8313C267.804 67.7313 268.004 67.4313 268.303 67.2313Z" fill="url(#paint25_linear)"/>
<path d="M278.578 69.6312C281.471 68.4312 282.768 65.1312 281.571 62.2312C280.374 59.3312 277.082 58.0312 274.189 59.2312C271.296 60.4312 269.999 63.7312 271.196 66.6312C272.393 69.5312 275.785 70.9312 278.578 69.6312Z" fill="url(#paint26_linear)"/>
<path d="M277.78 67.2313C279.177 66.6313 279.875 65.0313 279.277 63.6313C278.678 62.2313 277.082 61.5313 275.685 62.1313C274.289 62.7313 273.59 64.3313 274.189 65.7313C274.788 67.2313 276.384 67.8313 277.78 67.2313ZM276.084 63.3313C276.883 63.0313 277.681 63.3313 278.08 64.1313C278.379 64.9313 278.08 65.7313 277.282 66.1313C276.483 66.4313 275.685 66.1313 275.286 65.3313C274.987 64.5313 275.386 63.6313 276.084 63.3313Z" fill="#7D77A6"/>
<path d="M277.481 67.0313C278.878 66.4313 279.476 64.8313 278.878 63.4313C278.279 62.0313 276.683 61.4313 275.286 62.0313C273.89 62.6313 273.291 64.2313 273.89 65.6313C274.488 66.9313 276.084 67.6313 277.481 67.0313ZM275.785 63.0313C276.583 62.7313 277.481 63.0313 277.78 63.8313C278.08 64.6313 277.78 65.5313 276.982 65.8313C276.184 66.1313 275.286 65.8313 274.987 65.0313C274.688 64.3313 274.987 63.4313 275.785 63.0313Z" fill="url(#paint27_linear)"/>
<path d="M274.588 59.7313C276.583 58.9313 278.678 59.2312 280.274 60.4312C280.773 60.9312 281.272 61.5313 281.571 62.2313C282.768 65.1313 281.471 68.4312 278.578 69.6312C276.483 70.5312 274.089 70.0313 272.493 68.5313C272.194 68.1313 271.894 67.6312 271.595 67.1312C270.398 64.2312 271.695 60.9313 274.588 59.7313ZM278.578 68.9312C280.773 67.9312 281.87 65.4312 280.873 63.1312C279.875 60.9312 277.381 59.8313 275.087 60.8313C272.892 61.8313 271.795 64.3312 272.792 66.6312C273.79 68.9312 276.284 69.9312 278.578 68.9312Z" fill="#7D77A6"/>
<path d="M281.671 65.9312L282.868 66.4312C282.768 66.8312 282.669 67.2312 282.469 67.6312L281.272 67.1312C281.372 66.7312 281.571 66.3312 281.671 65.9312Z" fill="#7D77A6"/>
<path d="M278.379 70.7313L277.88 69.5313C278.279 69.5313 278.678 69.3313 279.077 69.2313L279.576 70.4313C279.177 70.5313 278.778 70.6313 278.379 70.7313Z" fill="#7D77A6"/>
<path d="M281.172 63.1312C280.973 62.7312 280.673 62.3313 280.374 62.0312L281.571 61.5312C281.871 61.8313 282.07 62.2312 282.27 62.6312L281.172 63.1312Z" fill="#7D77A6"/>
<path d="M278.578 69.6312C281.471 68.4312 282.768 65.1312 281.571 62.2312C280.374 59.3312 277.082 58.0312 274.189 59.2312C271.296 60.4312 269.999 63.7312 271.196 66.6312C272.393 69.5312 275.785 70.9312 278.578 69.6312ZM274.688 60.4312C276.982 59.4312 279.576 60.5312 280.474 62.7312C281.471 65.0312 280.374 67.6313 278.179 68.5313C275.885 69.5313 273.291 68.4312 272.393 66.2312C271.396 64.0312 272.393 61.3312 274.688 60.4312Z" fill="url(#paint28_linear)"/>
<path opacity="0.5" fill-rule="evenodd" clip-rule="evenodd" d="M286.362 147.306L315.628 168.912L291.427 201.736L262.161 180.129L286.362 147.306Z" fill="url(#paint29_linear)"/>
<path fill-rule="evenodd" clip-rule="evenodd" d="M262.421 167.976L290.013 188.475L310.743 160.43L283.065 139.981L262.421 167.976Z" fill="url(#paint30_linear)"/>
<path d="M288.981 152.256C289.772 152.029 290.476 151.852 291.008 151.775C292.295 151.607 293.558 151.799 294.748 152.264C295.801 152.693 296.781 153.395 297.429 154.52C298.014 155.336 298.376 156.165 298.429 157.057C298.645 158.433 298.501 159.785 297.999 161.115L297.913 161.165C297.643 161.898 297.287 162.681 296.696 163.254L296.549 163.801C296.253 164.087 295.921 164.511 295.279 164.998C294.86 165.471 294.441 165.944 294.332 166.354C293.976 167.137 293.955 168.303 294.321 169.938C294.623 171.263 294.725 172.243 294.592 173.012L294.556 173.149C294.519 173.285 294.482 173.422 294.532 173.508C294.299 174.105 293.93 174.665 293.339 175.238C292.783 175.675 292.178 176.025 291.387 176.253C290.905 176.416 290.287 176.543 289.705 176.534C288.728 176.638 286.178 176.614 284.902 176.199C283.217 175.674 280.735 173.764 279.02 171.987C276.448 169.322 274.95 165.919 275.399 163.697C275.679 162.381 276.118 160.742 276.683 159.722C276.683 159.722 276.683 159.722 276.77 159.672C277.053 159.162 277.471 158.689 277.99 158.388C278.632 157.902 279.423 157.674 280.314 157.62C281.341 157.603 282.059 157.649 282.418 157.672C283.086 157.631 283.618 157.554 283.927 157.49C284.668 157.177 285.223 156.74 285.469 156.366C285.716 155.993 285.875 155.67 286.035 155.347L286.181 154.8C286.414 154.204 286.87 153.594 287.289 153.121C287.807 152.82 288.412 152.47 288.981 152.256Z" fill="url(#paint31_linear)"/>
<path d="M292.952 161.154C293.374 161.487 293.586 162.056 293.576 162.639C293.616 163.309 293.469 163.855 293.087 164.192C292.964 164.378 292.618 164.579 292.15 164.965C291.767 165.302 291.471 165.589 291.398 165.862C291.288 166.272 291.228 166.768 291.391 167.251C291.654 167.907 291.903 168.34 291.966 168.649C292.178 169.219 292.255 169.752 292.281 170.198C292.308 170.644 292.284 171.004 292.125 171.327C292.088 171.464 292.051 171.6 292.015 171.737C291.855 172.06 291.609 172.433 291.14 172.82C290.585 173.257 289.93 173.521 289.325 173.871C287.374 174.885 285.052 169.652 285.142 167.407C285.319 165.112 289.604 162.746 290.518 162.332C291.432 161.918 292.396 161.591 292.952 161.154Z" fill="url(#paint32_linear)"/>
<path d="M275.322 163.975C276.486 163.994 277.3 163.98 277.572 164.053C277.552 165.219 277.841 166.321 278.216 167.373C278.642 168.512 279.276 169.414 280.084 170.216C280.791 170.845 281.4 171.301 282.131 171.57C282.726 171.802 283.494 171.935 284.348 172.017C284.929 172.027 285.647 172.073 286.625 171.969C287.07 171.942 287.775 171.765 288.652 171.487C288.915 172.143 289.19 173.022 289.38 173.951C289.38 173.951 288.861 174.252 287.86 174.716C286.823 175.316 285.995 175.68 285.613 176.017C285.354 176.167 285.181 176.267 284.922 176.417C284.749 176.517 284.489 176.667 284.366 176.854C283.293 177.591 282.355 178.365 281.417 179.138C280.357 180.099 278.485 182.452 277.624 183.758C276.885 184.878 275.856 181.089 274.404 179.967C273.287 179.229 268.966 178.73 269.754 177.697C270.838 176.377 272.228 174.187 272.903 172.757C273.259 171.974 273.542 171.464 273.565 171.105C273.761 170.645 273.908 170.098 274.141 169.502L274.543 167.999C274.836 166.907 275.129 165.814 275.322 164.548C275.384 164.317 275.437 164.175 275.322 163.975Z" fill="url(#paint33_linear)"/>
<path d="M282.494 164.205C282.853 164.228 283.075 164.214 283.298 164.201C283.88 164.21 284.645 163.537 285.642 162.267C285.975 161.844 286.294 161.197 286.404 160.787C286.55 160.241 287.6 159.864 289.226 160.885C290.851 161.906 291.645 162.484 291.262 162.821C290.448 163.408 289.683 164.082 288.882 164.892C287.994 165.752 287.539 166.362 287.429 166.772C287.306 166.958 287.419 167.355 287.595 168.061C287.708 168.457 287.821 168.853 287.947 169.472L288.648 171.49C287.537 172.364 284.489 174.475 280.604 171.531C276.633 168.637 277.275 165.149 277.568 164.056C277.927 164.079 278.868 164.112 280.39 164.154C281.33 164.186 282.048 164.232 282.494 164.205Z" fill="url(#paint34_linear)"/>
<path d="M289.641 163.413C287.713 164.067 286.35 163.702 285.553 162.317C285.885 161.894 286.168 161.384 286.264 160.751C286.411 160.204 286.687 161.084 287.63 161.922C288.883 162.697 290.346 163.235 289.641 163.413Z" fill="#261C6A"/>
<path d="M288.255 157.406C288.92 156.56 289.179 156.41 290.116 155.636C290.499 155.299 290.844 155.099 291.104 154.949C291.759 154.685 292.304 154.831 292.912 155.287L292.679 155.883C292.396 156.393 292.336 156.89 292.14 157.349C291.787 158.938 292.04 160.177 292.947 161.152C292.701 161.526 292.159 162.185 291.554 162.536C290.27 163.509 288.775 163.914 287.558 163.002C286.764 162.424 286.216 161.472 286.559 160.465C286.851 159.373 287.59 158.253 288.255 157.406Z" fill="url(#paint35_linear)"/>
<path opacity="0.298" d="M274.992 168.779C275.617 167.263 275.654 167.127 277.213 167.032C277.572 167.055 278.339 167.188 278.649 167.124C279.267 166.997 280.471 164.684 280.89 164.211C280.89 164.211 281.335 164.184 281.385 164.271C281.744 164.294 282.771 164.276 283.13 164.299C283.575 164.272 283.957 163.935 284.13 163.835C284.13 163.835 284.18 163.922 284.267 163.872C284.589 164.031 284.961 164.277 285.074 164.674C285.137 164.983 285.15 165.206 285.077 165.48C284.674 166.982 283.391 167.956 282.753 169.249C282.114 170.541 282.12 172.153 281.941 173.642C281.751 175.714 278.496 178.868 277.947 180.917C277.238 183.289 277.116 180.475 274.856 181.552C273.191 179.862 274.085 180.614 275.165 178.488C275.485 177.842 278.038 175.671 278.244 174.628C278.377 173.859 276.559 174.104 275.669 174.158C273.801 174.316 272.982 177.098 271.177 177.566C270.782 177.679 272.587 174.211 273.116 173.327C274.15 171.921 274.171 170.755 274.992 168.779Z" fill="#261C6A"/>
<path d="M277.362 171.099L280.044 173.355C280.279 173.564 280.589 173.501 280.798 173.264L285.38 167.611C285.589 167.374 285.526 167.065 285.29 166.855L282.522 164.649C282.286 164.44 281.977 164.503 281.768 164.74L277.186 170.393C277.113 170.666 277.126 170.889 277.362 171.099Z" fill="url(#paint36_linear)"/>
<path d="M284.165 167.507C284.083 167.364 284.132 167.18 284.275 167.097C284.418 167.014 284.601 167.063 284.684 167.207C284.767 167.35 284.717 167.534 284.574 167.617C284.431 167.699 284.248 167.65 284.165 167.507Z" fill="#593AFC"/>
<path d="M279.634 171.634C279.634 171.634 279.993 171.657 280.76 171.789C281.033 171.862 281.256 171.849 281.392 171.885C281.665 171.958 281.801 171.995 281.851 172.081C282.1 172.514 282.435 172.897 282.685 173.33C282.808 173.143 282.881 172.87 282.818 172.56C282.755 172.251 282.655 172.077 282.506 171.818C282.319 171.695 282.133 171.572 281.897 171.362C281.848 171.275 281.389 171.079 281.253 171.043C281.116 171.006 280.88 170.797 280.831 170.71C280.681 170.45 280.718 170.314 280.841 170.127C281.808 170.606 282.403 170.839 282.625 170.825C282.848 170.811 283.121 170.885 283.171 170.971C283.27 171.144 283.32 171.231 283.333 171.454C283.347 171.677 283.459 172.073 283.536 172.606C283.562 173.053 283.712 173.312 283.675 173.449C283.775 173.622 283.738 173.759 283.529 173.995C283.406 174.182 282.196 174.882 281.431 175.556C281.258 175.656 281.135 175.843 281.098 175.979L277.85 180.745C277.85 180.745 280.416 178.798 281.317 178.161C282.132 177.574 283.541 177.219 284.944 178.254C286.582 179.498 286.017 180.518 285.239 180.969C284.893 181.169 284.029 181.669 283.337 182.069C281.299 183.134 279.594 183.775 278.098 184.179C277.789 184.243 274.362 181.495 274.978 180.562C275.643 179.715 279.613 175.801 279.599 175.578C279.586 175.354 279.573 175.131 279.696 174.945C279.733 174.808 279.769 174.671 279.892 174.485C280.015 174.298 280.052 174.162 280.039 173.938C279.907 173.71 279.779 173.488 279.64 173.246C279.54 173.073 279.49 172.986 279.441 172.9C279.391 172.813 279.377 172.59 279.414 172.453C279.451 172.317 279.487 172.18 279.56 171.907C279.56 171.907 279.597 171.77 279.634 171.634Z" fill="url(#paint37_linear)"/>
<path d="M282.326 174.113C281.891 173.557 281.691 173.211 281.592 173.038L281.306 172.742C281.17 172.705 281.033 172.669 280.761 172.595C280.352 172.486 279.893 172.29 279.471 171.957M281.312 174.354C281.113 174.008 281.013 173.835 280.963 173.748C280.814 173.488 280.628 173.365 280.441 173.242C280.392 173.155 280.205 173.032 279.883 172.873C279.697 172.75 279.511 172.627 279.325 172.504M283.453 174.269C282.934 174.569 281.624 175.097 280.956 175.137" stroke="#EDB596" stroke-width="0.2209" stroke-miterlimit="10" stroke-linecap="round"/>
<path d="M283.581 180.893C283.318 180.237 281.367 178.25 281.367 178.25C281.663 177.963 284.014 177.641 285.28 178.64C287.291 180.13 285.425 181.095 284.993 181.345C284.475 181.645 284.129 181.845 283.437 182.246C283.906 181.859 283.929 181.499 283.581 180.893Z" fill="#0C053E"/>
<path d="M281.367 178.252C281.367 178.252 283.972 179.974 285.477 181.988C286.192 181.228 286.365 181.128 288.227 179.358C290.138 177.674 289.806 175.097 289.332 173.871C289.205 173.252 281.367 178.252 281.367 178.252Z" fill="url(#paint38_linear)"/>
<path opacity="0.5" d="M287.328 174.798C284.278 176.102 281.367 178.248 281.367 178.248" stroke="#261C6A" stroke-width="0.2209" stroke-miterlimit="10" stroke-linecap="round" stroke-linejoin="round"/>
<path d="M272.396 169.472C273.798 170.507 273.928 171.932 273.585 172.938C273.242 173.944 272.128 177.013 272.128 177.013L275.749 172.493C275.872 172.306 275.958 172.256 276.031 171.983C276.424 171.064 276.79 169.698 276.913 169.511C277.036 169.325 277.209 169.224 277.431 169.211C277.568 169.247 277.79 169.234 278.322 169.157C278.545 169.143 278.768 169.13 278.854 169.08C279.299 169.053 279.472 168.953 279.745 169.026C280.017 169.099 280.685 169.058 281.712 169.04C281.812 169.214 281.689 169.4 281.516 169.5C281.43 169.55 281.257 169.65 281.034 169.664C280.812 169.677 280.094 169.631 279.562 169.709C279.253 169.772 279.03 169.786 278.807 169.799C278.498 169.863 278.239 170.013 278.116 170.199C278.574 170.396 278.983 170.505 279.528 170.651C279.578 170.738 279.714 170.774 279.777 171.084C279.827 171.17 279.977 171.43 280.076 171.603C280.425 172.209 280.625 172.555 280.625 172.555C280.538 172.605 280.365 172.705 280.279 172.755C280.106 172.855 279.933 172.955 279.847 173.006C279.674 173.106 279.538 173.069 279.365 173.169C279.228 173.133 279.142 173.183 278.956 173.06C278.77 172.937 278.547 172.95 278.411 172.914C278.039 172.814 277.929 172.962 277.62 173.141C277.533 173.191 277.41 173.377 277.324 173.428C277.151 173.528 276.978 173.628 276.669 173.691C276.496 173.791 274.015 178.69 273.264 179.586C272.649 180.519 268.937 177.475 268.897 176.806C268.904 175.417 269.035 173.841 269.374 172.029C269.507 171.26 269.8 170.167 269.823 169.807C269.87 169.088 270.758 168.228 272.396 169.472Z" fill="url(#paint39_linear)"/>
<path d="M277.251 170.701C277.846 170.934 278.255 171.043 278.527 171.116L278.85 171.276C278.899 171.363 278.999 171.536 279.099 171.709C279.348 172.142 279.634 172.438 280.056 172.771M277.317 171.817C277.726 171.927 277.862 171.963 277.998 172C278.271 172.073 278.457 172.196 278.643 172.319C278.78 172.355 278.879 172.529 279.202 172.688C279.388 172.811 279.574 172.934 279.76 173.057M276.789 169.699C276.692 170.332 276.499 171.598 276.675 172.304" stroke="#EDB596" stroke-width="0.2209" stroke-miterlimit="10" stroke-linecap="round"/>
<path d="M270.46 171.513C271.178 171.559 273.621 172.799 273.621 172.799C273.731 172.389 273.748 170.417 272.11 169.173C270.099 167.682 269.773 169.718 269.626 170.264C269.48 170.811 269.37 171.221 269.287 172.077C269.483 171.617 269.829 171.417 270.46 171.513Z" fill="#0C053E"/>
<path d="M273.839 172.999C273.839 172.999 271.174 170.753 268.807 170.046C269.336 169.163 269.373 169.026 270.44 166.677C271.508 164.328 274.031 163.906 275.33 163.961C276.085 163.871 273.839 172.999 273.839 172.999Z" fill="url(#paint40_linear)"/>
<path fill-rule="evenodd" clip-rule="evenodd" d="M283.369 138.306L312.635 159.912L288.434 192.736L259.168 171.129L283.369 138.306ZM283.428 140.81L263.486 167.821L290.133 187.482L310.076 160.471L283.428 140.81Z" fill="url(#paint41_linear)"/>
<path d="M113.855 171.14C112.008 171.843 106.681 173.695 97.8899 176.678" stroke="#4E22D0" stroke-width="0.5" stroke-linecap="round" stroke-linejoin="round"/>
<path d="M93.0824 89.639C95.2039 91.1077 97.1423 91.6126 98.8823 91.1689C100.607 90.6794 101.935 90.098 102.866 89.4248C103.644 88.8434 104.224 88.1703 104.682 87.4206C103.308 85.5693 101.828 83.5345 100.302 81.2549C96.8829 81.6221 93.2045 82.387 89.2514 83.5804C83.1463 85.6305 76.278 88.3997 74.6907 89.9144C72.2639 92.2093 72.5997 93.5251 73.4849 94.6572C74.2939 95.7435 75.2554 96.5391 76.3849 97.0745C77.4991 97.5641 78.7353 97.8089 80.0937 97.8089C81.4521 97.7936 83.1158 97.4264 85.0999 96.7074C87.1146 95.973 88.6562 93.9841 89.7246 90.7559C90.4267 89.5013 91.5561 89.1341 93.0824 89.639Z" fill="url(#paint42_linear)"/>
<path d="M104.499 98.8342C104.011 98.2528 103.324 97.5643 102.438 96.7687C101.538 95.9426 100.073 95.8049 98.0427 96.325C96.0128 96.8299 94.227 97.5796 92.6855 98.5435C91.1439 99.5073 90.2282 100.624 89.9077 101.894C89.5871 103.149 89.404 104.082 89.3735 104.724C89.3429 105.444 89.4956 106.071 89.8161 106.622C90.3655 107.524 91.3271 108.121 92.6855 108.412C93.7691 108.672 94.8986 108.718 96.0738 108.565C97.2033 108.412 98.3327 108.121 99.4622 107.647C101.034 107.035 102.286 106.407 103.202 105.75C104.01 105.153 104.621 104.434 105.048 103.577C105.506 102.659 105.644 101.741 105.46 100.823C105.338 100.104 105.033 99.4308 104.499 98.8342Z" fill="url(#paint43_linear)"/>
<path d="M92.7769 102.5C94.7721 104.5 98.9265 103.628 100.758 102" stroke="#261C6A" stroke-width="1.5" stroke-linecap="round" stroke-linejoin="round"/>
<path d="M97.1583 99.1553C98.1809 98.9564 98.9898 98.4974 99.6003 97.7478C100.196 97.0134 100.455 96.5391 100.363 96.3402C99.7682 95.9883 99.0814 95.5293 98.2572 94.9632C96.7309 93.8311 95.3573 92.5612 94.121 91.1537C93.2052 90.0521 92.4726 88.7975 91.9384 87.4053" stroke="#0C053E" stroke-width="1.5" stroke-linecap="round" stroke-linejoin="round"/>
<path d="M86.7913 88C87.2901 88 77.8129 89 77.8129 89" stroke="#261C6A" stroke-width="1.5" stroke-linecap="round" stroke-linejoin="round"/>
<path d="M84.7961 90L85.7937 92" stroke="#261C6A" stroke-width="1.5" stroke-linecap="round" stroke-linejoin="round"/>
<path d="M98.7625 85L99.7601 87" stroke="#261C6A" stroke-width="1.5" stroke-linecap="round" stroke-linejoin="round"/>
<path d="M94.2733 86.5L99.2613 82.5" stroke="#261C6A" stroke-width="1.5" stroke-linecap="round" stroke-linejoin="round"/>
<path opacity="0.1" d="M201.991 133.423L212.765 137.023C213.862 137.423 215.059 136.823 215.359 135.723L215.858 134.023C214.86 133.323 214.062 132.723 213.164 132.023C208.176 127.923 204.984 124.023 204.086 120.123L200.594 130.823C200.295 131.823 200.894 133.023 201.991 133.423Z" fill="url(#paint44_linear)"/>
<path d="M195.008 144.323L192.115 143.323C190.917 142.923 190.319 141.623 190.618 140.523L199.796 112.523C200.195 111.323 201.492 110.723 202.689 111.123L205.582 112.123C206.779 112.523 207.378 113.823 207.079 114.923L197.901 142.923C197.402 144.023 196.205 144.723 195.008 144.323Z" fill="#7D77A6"/>
<path d="M238.503 158.723L192.414 143.423C191.317 143.123 190.818 141.923 191.117 140.923L200.494 112.523C200.794 111.423 201.991 110.923 202.989 111.223L249.078 126.523C250.175 126.823 250.674 128.023 250.375 129.023L240.997 157.423C240.698 158.523 239.6 159.023 238.503 158.723Z" fill="url(#paint45_linear)"/>
<path d="M205.582 112.123L203.288 111.323C201.891 110.823 200.894 111.423 200.395 113.023L191.317 140.723C190.917 141.823 191.416 143.123 192.414 143.423L237.605 158.323C236.508 143.123 221.743 138.923 213.364 131.923C205.083 125.123 201.592 119.023 205.582 112.123Z" fill="url(#paint46_linear)"/>
<path d="M192.015 143.223C191.316 142.623 190.917 141.723 191.316 140.723L200.494 112.723C200.794 111.823 201.592 111.223 202.39 111.223" stroke="#A8A4C3" stroke-width="0.5" stroke-miterlimit="10" stroke-linecap="round" stroke-linejoin="round"/>
<path d="M219.15 124.423L215.957 134.023C214.96 133.323 214.162 132.723 213.264 132.023C208.276 127.923 205.083 124.023 204.186 120.123L204.385 119.523C204.784 118.423 205.882 117.823 206.979 118.223L217.753 121.823C218.85 122.123 219.449 123.323 219.15 124.423Z" fill="#DFDDEB"/>
<path opacity="0.8" d="M222.142 128.423L239.8 134.223" stroke="#A8A4C3" stroke-width="1.5122" stroke-miterlimit="10" stroke-linecap="round"/>
<path opacity="0.8" d="M220.447 133.723L241.197 140.623" stroke="#A8A4C3" stroke-width="1.5122" stroke-miterlimit="10" stroke-linecap="round"/>
<path d="M215.957 134.023L215.458 135.723C215.059 136.823 213.962 137.423 212.865 137.023L202.091 133.423C200.993 133.023 200.395 131.923 200.794 130.823L204.285 120.123C205.183 124.023 208.475 127.823 213.364 132.023C214.162 132.723 215.059 133.323 215.957 134.023Z" fill="#D4D2E6"/>
<path d="M201.991 133.423L212.765 137.023C213.862 137.423 215.059 136.823 215.359 135.723L215.758 134.423C215.758 133.923 215.558 133.423 215.059 132.923C214.66 132.323 214.361 131.923 214.162 131.723C213.862 131.323 213.663 131.023 213.663 130.823C213.563 130.223 213.563 129.823 213.663 129.423C213.763 129.123 213.862 128.823 213.962 128.723L214.162 128.423C214.461 128.023 214.561 127.523 214.66 127.023C214.76 126.523 214.66 126.023 214.561 125.623C214.361 125.023 214.162 124.623 213.962 124.223C213.463 123.423 212.865 122.823 212.166 122.223C211.468 121.723 210.67 121.523 209.772 121.523C209.074 121.523 208.376 121.723 207.877 121.923C206.979 122.323 206.281 123.023 205.682 123.823C205.682 123.823 205.682 123.823 205.682 123.923C205.383 124.423 205.083 124.923 204.984 125.423L204.884 125.923C204.784 126.223 204.784 126.623 204.684 127.123C204.585 127.623 204.485 128.023 204.285 128.223C203.986 128.723 203.288 129.223 202.19 129.723C201.492 130.023 200.993 130.323 200.594 130.523L200.494 130.923C200.295 131.823 200.894 133.023 201.991 133.423Z" fill="url(#paint47_linear)"/>
<path d="M208.076 126.823C207.677 126.723 207.278 126.823 206.979 127.023C206.58 127.223 206.38 127.523 206.281 127.923C206.281 128.023 206.181 128.323 206.181 128.823C206.181 129.223 206.081 129.423 205.981 129.623C205.782 129.923 205.582 130.023 205.183 130.223C204.684 130.323 204.385 130.423 204.086 130.423C203.687 130.523 203.388 130.723 203.088 130.923C202.889 131.123 202.589 131.223 202.49 131.423C202.39 131.523 202.39 131.623 202.29 131.723C202.19 131.923 202.091 132.223 201.991 132.623C201.991 132.923 201.991 133.223 201.991 133.523L205.682 134.723C206.48 134.523 207.178 134.223 207.577 133.923C208.775 132.923 208.475 129.423 208.276 128.723C208.076 127.823 207.977 127.223 208.076 126.823Z" fill="url(#paint48_linear)"/>
<path d="M210.57 134.123C210.371 133.923 210.271 133.723 210.271 133.723C210.071 133.423 210.071 132.723 210.47 131.523C210.57 131.223 210.77 130.723 211.069 130.423C211.269 130.123 211.069 129.323 209.872 128.823C208.675 128.323 207.877 128.023 207.877 128.423C207.877 129.123 207.777 129.823 207.577 130.623C207.478 131.523 207.278 132.023 207.079 132.223C206.979 132.323 206.68 132.523 206.281 132.723C206.081 132.823 205.682 132.923 205.283 133.023L203.787 133.423C203.587 133.523 203.288 133.623 202.789 133.623L212.565 136.823C212.665 136.823 212.665 136.823 212.765 136.923C212.565 136.723 212.067 136.023 211.468 135.223C211.069 134.723 210.77 134.323 210.57 134.123Z" fill="url(#paint49_linear)"/>
<path d="M208.076 129.623C208.475 131.023 209.273 131.623 210.371 131.523C210.47 131.123 210.67 130.823 210.969 130.423C211.169 130.123 210.57 130.323 209.672 130.123C208.775 129.723 207.877 129.123 208.076 129.623Z" fill="#0C053E"/>
<path d="M211.069 134.823C210.969 134.723 210.969 134.723 210.87 134.623C208.376 135.423 206.58 134.423 205.981 132.823C205.782 132.923 205.582 133.023 205.283 133.023L203.787 133.423C203.587 133.523 203.288 133.623 202.789 133.623L212.565 136.823C212.665 136.823 212.665 136.823 212.765 136.923C212.565 136.723 212.067 136.023 211.468 135.223C211.368 135.123 211.269 134.923 211.169 134.823H211.069Z" fill="url(#paint50_linear)"/>
<path d="M212.067 127.923C212.266 127.123 212.266 127.023 212.366 126.123C212.366 125.823 212.366 125.523 212.366 125.323C212.266 124.823 211.967 124.523 211.468 124.423L211.269 124.823C211.069 125.123 210.87 125.423 210.57 125.723C209.772 126.523 208.974 126.923 208.076 126.823C207.977 127.123 207.777 127.723 207.777 128.223C207.777 129.423 208.176 130.423 209.174 130.723C209.872 130.923 210.67 130.923 211.069 130.223C211.568 129.523 211.967 128.723 212.067 127.923Z" fill="url(#paint51_linear)"/>
<path d="M180.067 129.5L163.607 113C159.616 119 143.61 147.566 134.133 153.566C118.67 149.566 98.7184 143.566 80.2628 141.066C61.8071 138.566 59.3573 163.5 72.3261 172C79.8524 176.933 123.16 184.066 136.128 184.566C149.097 185.066 180.566 130 180.067 129.5Z" fill="url(#paint52_linear)"/>
<path d="M163.607 113.5C159.616 119.5 143.61 147.566 134.133 153.566C118.67 149.566 98.7184 143.566 80.2628 141.066C61.8071 138.566 59.3573 163.5 72.3261 172" stroke="#7055FF" stroke-opacity="0.8" stroke-linecap="round" stroke-linejoin="round"/>
<path d="M219.472 180C244.266 180 264.364 159.852 264.364 135C264.364 110.147 244.266 89.9995 219.472 89.9995C194.679 89.9995 174.58 110.147 174.58 135C174.58 159.852 194.679 180 219.472 180Z" fill="url(#paint53_linear)"/>
<path d="M175.08 136.367C175.08 129.447 175.78 124.023 177.553 119.086C179.325 114.151 182.182 109.67 186.542 104.651C195.208 94.8784 207.164 90.4995 219.453 90.4995C231.74 90.4995 243.388 94.861 252.04 104.632C256.415 109.654 259.362 114.141 261.222 119.081C263.081 124.022 263.864 129.448 263.864 136.363C263.864 143.067 261.03 153.87 253.906 162.988C246.8 172.084 235.425 179.505 218.302 179.5C201.485 179.496 190.7 172.045 184.103 162.942C177.489 153.814 175.08 143.013 175.08 136.367Z" stroke="url(#paint54_linear)" stroke-linecap="round" stroke-linejoin="round"/>
<path d="M181.564 104.066C177.573 104.566 175.079 106.066 164.604 114.066L171.588 121.066C172.086 120.566 174.082 119.066 175.578 119.566C178.072 122.566 186.552 122.566 188.547 122.566C193.535 126.066 190.043 127.066 188.547 131.066C187.794 133.078 192.038 133.066 193.535 132.066C192.038 135.566 196.029 135.566 198.523 133.066C200.518 134.066 202.592 132.001 204.01 129.566C207.501 123.566 205.007 116.566 202.513 113.066C208 118.566 224.46 121.066 224.959 118.066C225.458 115.066 221.966 115.066 216.48 113.566C210.993 112.066 206.504 106.066 204.01 106.066C201.516 106.066 185.554 103.566 181.564 104.066Z" fill="url(#paint55_linear)"/>
<mask id="mask2" mask-type="alpha" maskUnits="userSpaceOnUse" x="164" y="104" width="62" height="31">
<path d="M181.564 104.066C177.573 104.566 175.079 106.066 164.604 114.066L171.588 121.066C172.086 120.566 174.082 119.066 175.578 119.566C178.072 122.566 186.552 122.566 188.547 122.566C193.535 126.066 190.043 127.066 188.547 131.066C187.794 133.078 192.038 133.066 193.535 132.066C192.038 135.566 196.029 135.566 198.523 133.066C200.518 134.066 202.592 132.001 204.01 129.566C207.501 123.566 205.007 116.566 202.513 113.066C208 118.566 224.46 121.066 224.959 118.066C225.458 115.066 221.966 115.066 216.48 113.566C210.993 112.066 206.504 106.066 204.01 106.066C201.516 106.066 185.554 103.566 181.564 104.066Z" fill="#C4C4C4"/>
</mask>
<g mask="url(#mask2)">
<path d="M202.513 113.066C201.017 110.066 203.012 105.066 211.492 106.066C210.993 104.066 206.504 103.566 190.043 101.566C173.583 99.5661 164.604 106.566 161.611 109.566C158.619 112.566 164.604 125.066 168.096 126.066C171.588 127.066 188.547 128.566 188.048 123.566C187.549 118.566 191.041 119.566 192.537 119.566C191.54 115.066 196.029 115.066 197.026 115.566C197.525 112.066 201.516 112.066 202.513 113.066Z" fill="#261C6A"/>
</g>
<path d="M194.532 121.566C196.528 126.566 195.53 130.566 194.532 131.566" stroke="#EDB596" stroke-miterlimit="10" stroke-linecap="round"/>
<path d="M198.024 117.066C201.017 120.066 202.513 127.566 199.022 132.066" stroke="#EDB596" stroke-miterlimit="10" stroke-linecap="round"/>
<defs>
<linearGradient id="paint0_linear" x1="210.966" y1="139.038" x2="210.966" y2="224.717" gradientUnits="userSpaceOnUse">
<stop stop-color="#4E22D0" stop-opacity="0.6"/>
<stop offset="0.9031" stop-color="#4E22D0" stop-opacity="0"/>
</linearGradient>
<linearGradient id="paint1_linear" x1="345.417" y1="192.419" x2="345.417" y2="234.72" gradientUnits="userSpaceOnUse">
<stop stop-color="#7055FF" stop-opacity="0.9"/>
<stop offset="0.9" stop-color="#4E22D0" stop-opacity="0"/>
</linearGradient>
<linearGradient id="paint2_linear" x1="57.5719" y1="144.013" x2="113.578" y2="144.013" gradientUnits="userSpaceOnUse">
<stop stop-color="#4E22D0"/>
<stop offset="1" stop-color="#160E53"/>
</linearGradient>
<linearGradient id="paint3_linear" x1="217.55" y1="202.757" x2="217.55" y2="248.157" gradientUnits="userSpaceOnUse">
<stop offset="0.00107473" stop-color="#7055FF"/>
<stop offset="1" stop-color="#3A1F9E"/>
</linearGradient>
<linearGradient id="paint4_linear" x1="217.552" y1="241.513" x2="217.552" y2="245.265" gradientUnits="userSpaceOnUse">
<stop stop-color="#7055FF"/>
<stop offset="1" stop-color="#3A1F9E"/>
</linearGradient>
<linearGradient id="paint5_linear" x1="240.266" y1="174.664" x2="201.622" y2="270.081" gradientUnits="userSpaceOnUse">
<stop offset="0.000351356" stop-color="#4E22D0"/>
<stop offset="1" stop-color="#261C6A"/>
</linearGradient>
<linearGradient id="paint6_linear" x1="232.704" y1="150.232" x2="122.719" y2="40.5106" gradientUnits="userSpaceOnUse">
<stop offset="0.000694004" stop-color="#7055FF"/>
<stop offset="0.9638" stop-color="#4E22D0"/>
</linearGradient>
<linearGradient id="paint7_linear" x1="232.704" y1="150.232" x2="122.719" y2="40.5106" gradientUnits="userSpaceOnUse">
<stop offset="0.000694004" stop-color="#7055FF"/>
<stop offset="0.9638" stop-color="#4E22D0"/>
</linearGradient>
<linearGradient id="paint8_linear" x1="67.0557" y1="226.5" x2="242.701" y2="95.6337" gradientUnits="userSpaceOnUse">
<stop stop-color="#4E22D0"/>
<stop offset="1" stop-color="#160E53"/>
</linearGradient>
<linearGradient id="paint9_linear" x1="192.03" y1="125.774" x2="128.722" y2="188.93" gradientUnits="userSpaceOnUse">
<stop stop-color="#4E22D0"/>
<stop offset="1" stop-color="#160E53"/>
</linearGradient>
<linearGradient id="paint10_linear" x1="107.308" y1="72.7769" x2="126.638" y2="72.7769" gradientUnits="userSpaceOnUse">
<stop stop-color="#FCC9AB"/>
<stop offset="0.9622" stop-color="white"/>
</linearGradient>
<linearGradient id="paint11_linear" x1="261.889" y1="68.7565" x2="172.749" y2="195.543" gradientUnits="userSpaceOnUse">
<stop stop-color="#4E22D0" stop-opacity="0.6"/>
<stop offset="1" stop-color="#0C053E" stop-opacity="0.6"/>
</linearGradient>
<linearGradient id="paint12_linear" x1="205.487" y1="27.9608" x2="127.415" y2="88.9371" gradientUnits="userSpaceOnUse">
<stop stop-color="#4E22D0"/>
<stop offset="1" stop-color="#160E53"/>
</linearGradient>
<linearGradient id="paint13_linear" x1="144.153" y1="52.0072" x2="191.552" y2="50.5294" gradientUnits="userSpaceOnUse">
<stop stop-color="#7055FF"/>
<stop offset="1" stop-color="#4E22D0"/>
</linearGradient>
<linearGradient id="paint14_linear" x1="161.322" y1="68.0194" x2="149.004" y2="59.8499" gradientUnits="userSpaceOnUse">
<stop stop-color="#FF7800"/>
<stop offset="1" stop-color="#FF4700"/>
</linearGradient>
<linearGradient id="paint15_linear" x1="173.147" y1="52.4866" x2="159.269" y2="43.2804" gradientUnits="userSpaceOnUse">
<stop stop-color="#FF7800"/>
<stop offset="1" stop-color="#FF4700"/>
</linearGradient>
<linearGradient id="paint16_linear" x1="152.805" y1="72.8688" x2="148.499" y2="70.0052" gradientUnits="userSpaceOnUse">
<stop stop-color="#FF7800"/>
<stop offset="1" stop-color="#FF4700"/>
</linearGradient>
<linearGradient id="paint17_linear" x1="232.704" y1="150.232" x2="122.719" y2="40.5106" gradientUnits="userSpaceOnUse">
<stop offset="0.000694004" stop-color="#7055FF"/>
<stop offset="0.9638" stop-color="#4E22D0"/>
</linearGradient>
<linearGradient id="paint18_linear" x1="226.235" y1="39" x2="318.946" y2="94.9566" gradientUnits="userSpaceOnUse">
<stop stop-color="#4E22D0"/>
<stop offset="1" stop-color="#160E53"/>
</linearGradient>
<linearGradient id="paint19_linear" x1="296.04" y1="76.5636" x2="252.013" y2="47.0882" gradientUnits="userSpaceOnUse">
<stop stop-color="#4E22D0"/>
<stop offset="0.9028" stop-color="#7055FF"/>
</linearGradient>
<linearGradient id="paint20_linear" x1="314.348" y1="90.7707" x2="268.044" y2="57.7232" gradientUnits="userSpaceOnUse">
<stop stop-color="#160E53"/>
<stop offset="1" stop-color="#4E22D0"/>
</linearGradient>
<linearGradient id="paint21_linear" x1="285.898" y1="61.0279" x2="268.942" y2="68.2656" gradientUnits="userSpaceOnUse">
<stop stop-color="#160E53"/>
<stop offset="1" stop-color="#4E22D0"/>
</linearGradient>
<linearGradient id="paint22_linear" x1="268.711" y1="50.9958" x2="274.963" y2="53.1152" gradientUnits="userSpaceOnUse">
<stop stop-color="white"/>
<stop offset="1" stop-color="#D2CFE3"/>
</linearGradient>
<linearGradient id="paint23_linear" x1="272.603" y1="52.2436" x2="269.829" y2="51.4608" gradientUnits="userSpaceOnUse">
<stop stop-color="#A5A1C0"/>
<stop offset="1" stop-color="white"/>
</linearGradient>
<linearGradient id="paint24_linear" x1="272.391" y1="52.2725" x2="270.169" y2="51.4746" gradientUnits="userSpaceOnUse">
<stop stop-color="#D2CFE3"/>
<stop offset="1" stop-color="white"/>
</linearGradient>
<linearGradient id="paint25_linear" x1="267.812" y1="60.0913" x2="287.924" y2="70.4689" gradientUnits="userSpaceOnUse">
<stop stop-color="white"/>
<stop offset="1" stop-color="#A5A1C0"/>
</linearGradient>
<linearGradient id="paint26_linear" x1="288.358" y1="69.1948" x2="268.997" y2="61.6885" gradientUnits="userSpaceOnUse">
<stop stop-color="white"/>
<stop offset="1" stop-color="#A5A1C0"/>
</linearGradient>
<linearGradient id="paint27_linear" x1="273.989" y1="63.9384" x2="279.29" y2="65.2284" gradientUnits="userSpaceOnUse">
<stop stop-color="white"/>
<stop offset="1" stop-color="#A5A1C0"/>
</linearGradient>
<linearGradient id="paint28_linear" x1="271.91" y1="62.9171" x2="282.49" y2="66.71" gradientUnits="userSpaceOnUse">
<stop stop-color="white"/>
<stop offset="1" stop-color="#A5A1C0"/>
</linearGradient>
<linearGradient id="paint29_linear" x1="272.389" y1="144.513" x2="302.038" y2="218.587" gradientUnits="userSpaceOnUse">
<stop stop-color="#4E22D0"/>
<stop offset="1" stop-color="#160E53"/>
</linearGradient>
<linearGradient id="paint30_linear" x1="296.763" y1="150.423" x2="276.256" y2="178.141" gradientUnits="userSpaceOnUse">
<stop stop-color="#E35502"/>
<stop offset="0.5" stop-color="#FC7801"/>
<stop offset="1" stop-color="#EF932C"/>
</linearGradient>
<linearGradient id="paint31_linear" x1="280.654" y1="173.715" x2="296.029" y2="152.932" gradientUnits="userSpaceOnUse">
<stop offset="0.1922" stop-color="#4E22D0"/>
<stop offset="1" stop-color="#7055FF"/>
</linearGradient>
<linearGradient id="paint32_linear" x1="284.469" y1="170.365" x2="294.336" y2="166.092" gradientUnits="userSpaceOnUse">
<stop offset="0.1922" stop-color="#261C6A"/>
<stop offset="1" stop-color="#4E22D0"/>
</linearGradient>
<linearGradient id="paint33_linear" x1="274.077" y1="180.061" x2="279.315" y2="172.981" gradientUnits="userSpaceOnUse">
<stop stop-color="#52E0BE" stop-opacity="0"/>
<stop offset="0.4" stop-color="#52E0BE" stop-opacity="0.5"/>
<stop offset="1" stop-color="#44EA99"/>
</linearGradient>
<linearGradient id="paint34_linear" x1="291.222" y1="169.814" x2="281.442" y2="164.302" gradientUnits="userSpaceOnUse">
<stop stop-color="#F9C6A8"/>
<stop offset="1" stop-color="white"/>
</linearGradient>
<linearGradient id="paint35_linear" x1="292.36" y1="161.945" x2="288.411" y2="157.002" gradientUnits="userSpaceOnUse">
<stop stop-color="#F9C6A8"/>
<stop offset="1" stop-color="white"/>
</linearGradient>
<linearGradient id="paint36_linear" x1="283.465" y1="170.468" x2="278.997" y2="167.589" gradientUnits="userSpaceOnUse">
<stop stop-color="#261C6A"/>
<stop offset="1" stop-color="#7055FC"/>
</linearGradient>
<linearGradient id="paint37_linear" x1="286.305" y1="179.383" x2="276.277" y2="176.451" gradientUnits="userSpaceOnUse">
<stop offset="0.194" stop-color="#F9C6A8"/>
<stop offset="1" stop-color="white"/>
</linearGradient>
<linearGradient id="paint38_linear" x1="281.913" y1="179.749" x2="290.425" y2="176.902" gradientUnits="userSpaceOnUse">
<stop offset="0.2325" stop-color="#52E0BE"/>
<stop offset="0.8241" stop-color="#44EA99"/>
</linearGradient>
<linearGradient id="paint39_linear" x1="278.279" y1="175.477" x2="269.983" y2="169.361" gradientUnits="userSpaceOnUse">
<stop stop-color="white"/>
<stop offset="0.806" stop-color="#F9C6A8"/>
</linearGradient>
<linearGradient id="paint40_linear" x1="268.887" y1="170.084" x2="276.672" y2="167.481" gradientUnits="userSpaceOnUse">
<stop offset="0.2325" stop-color="#52E0BE"/>
<stop offset="0.8241" stop-color="#44EA99"/>
</linearGradient>
<linearGradient id="paint41_linear" x1="287.844" y1="155.105" x2="281.021" y2="191.829" gradientUnits="userSpaceOnUse">
<stop stop-color="white"/>
<stop offset="1" stop-color="#D2CFE3"/>
</linearGradient>
<linearGradient id="paint42_linear" x1="88.6762" y1="82.3629" x2="88.8114" y2="101.893" gradientUnits="userSpaceOnUse">
<stop stop-color="#F9C6A8"/>
<stop offset="0.9622" stop-color="white"/>
</linearGradient>
<linearGradient id="paint43_linear" x1="97.4072" y1="96.8165" x2="97.5109" y2="111.803" gradientUnits="userSpaceOnUse">
<stop stop-color="#F9C6A8"/>
<stop offset="0.9622" stop-color="white"/>
</linearGradient>
<linearGradient id="paint44_linear" x1="227.186" y1="155.717" x2="194.541" y2="116.872" gradientUnits="userSpaceOnUse">
<stop stop-color="#4E22D0" stop-opacity="0.5"/>
<stop offset="1" stop-color="#160E53" stop-opacity="0.5"/>
</linearGradient>
<linearGradient id="paint45_linear" x1="261.756" y1="119.22" x2="171.08" y2="153.909" gradientUnits="userSpaceOnUse">
<stop stop-color="#F4F3FA"/>
<stop offset="1" stop-color="#7D77A6"/>
</linearGradient>
<linearGradient id="paint46_linear" x1="278.54" y1="120.67" x2="172.961" y2="145.996" gradientUnits="userSpaceOnUse">
<stop stop-color="#F4F3FA"/>
<stop offset="1" stop-color="#7D77A6"/>
</linearGradient>
<linearGradient id="paint47_linear" x1="206.802" y1="136.959" x2="212.029" y2="121.147" gradientUnits="userSpaceOnUse">
<stop offset="0.1922" stop-color="#4E22D0"/>
<stop offset="1" stop-color="#7055FF"/>
</linearGradient>
<linearGradient id="paint48_linear" x1="204.187" y1="135.45" x2="206.99" y2="126.972" gradientUnits="userSpaceOnUse">
<stop offset="0.1922" stop-color="#261C6A"/>
<stop offset="1" stop-color="#4E22D0"/>
</linearGradient>
<linearGradient id="paint49_linear" x1="200.697" y1="133.827" x2="220.422" y2="131.356" gradientUnits="userSpaceOnUse">
<stop stop-color="#FCC9AB"/>
<stop offset="1" stop-color="white"/>
</linearGradient>
<linearGradient id="paint50_linear" x1="205.68" y1="141.979" x2="209.174" y2="131.41" gradientUnits="userSpaceOnUse">
<stop stop-color="#50E3C2"/>
<stop offset="1" stop-color="#43ED9C"/>
</linearGradient>
<linearGradient id="paint51_linear" x1="207.84" y1="127.434" x2="212.311" y2="127.687" gradientUnits="userSpaceOnUse">
<stop stop-color="#FCC9AB"/>
<stop offset="1" stop-color="white"/>
</linearGradient>
<linearGradient id="paint52_linear" x1="147.146" y1="149" x2="59.2149" y2="197.388" gradientUnits="userSpaceOnUse">
<stop stop-color="#4E22D0"/>
<stop offset="1" stop-color="#160E53"/>
</linearGradient>
<linearGradient id="paint53_linear" x1="219.473" y1="148.5" x2="219.473" y2="89.9995" gradientUnits="userSpaceOnUse">
<stop offset="0.328351" stop-color="#FF4672" stop-opacity="0"/>
<stop offset="0.709939" stop-color="#FF4672" stop-opacity="0.4"/>
<stop offset="1" stop-color="#FF4672" stop-opacity="0.8"/>
</linearGradient>
<linearGradient id="paint54_linear" x1="219.47" y1="157.967" x2="219.47" y2="86.0607" gradientUnits="userSpaceOnUse">
<stop stop-color="#FF4672" stop-opacity="0"/>
<stop offset="1" stop-color="#FF4672" stop-opacity="0.75"/>
</linearGradient>
<linearGradient id="paint55_linear" x1="164.603" y1="119.421" x2="229.615" y2="119.421" gradientUnits="userSpaceOnUse">
<stop stop-color="#FCC9AB"/>
<stop offset="0.9622" stop-color="white"/>
</linearGradient>
</defs>
</svg>
